<svg width="15" height="15" viewBox="0 0 15 15" fill="none" xmlns="http://www.w3.org/2000/svg">
<path d="M3.90625 6.13748C3.68125 6.13748 3.5125 6.0406 3.4 5.84685C3.2875 5.6531 3.29375 5.46248 3.41875 5.27498L6.55 0.268726C6.6625 0.0937257 6.81875 0.00622559 7.01875 0.00622559C7.21875 0.00622559 7.375 0.0937257 7.4875 0.268726L10.6188 5.27498C10.7438 5.46248 10.75 5.6531 10.6375 5.84685C10.525 6.0406 10.3562 6.13748 10.1312 6.13748H3.90625ZM11.2375 14.5C10.3125 14.5 9.5375 14.1875 8.9125 13.5625C8.2875 12.9375 7.975 12.1625 7.975 11.2375C7.975 10.3125 8.2875 9.53748 8.9125 8.91248C9.5375 8.28748 10.3125 7.97498 11.2375 7.97498C12.1625 7.97498 12.9375 8.28748 13.5625 8.91248C14.1875 9.53748 14.5 10.3125 14.5 11.2375C14.5 12.1625 14.1875 12.9375 13.5625 13.5625C12.9375 14.1875 12.1625 14.5 11.2375 14.5ZM0.8125 14.0312C0.65 14.0312 0.515625 13.9781 0.409375 13.8719C0.303125 13.7656 0.25 13.6312 0.25 13.4687V8.89373C0.25 8.73123 0.303125 8.59685 0.409375 8.4906C0.515625 8.38435 0.65 8.33123 0.8125 8.33123H5.3875C5.55 8.33123 5.68437 8.38435 5.79062 8.4906C5.89687 8.59685 5.95 8.73123 5.95 8.89373V13.4687C5.95 13.6312 5.89687 13.7656 5.79062 13.8719C5.68437 13.9781 5.55 14.0312 5.3875 14.0312H0.8125ZM11.2375 13.375C11.8375 13.375 12.3437 13.1687 12.7562 12.7562C13.1687 12.3437 13.375 11.8375 13.375 11.2375C13.375 10.6375 13.1687 10.1312 12.7562 9.71873C12.3437 9.30623 11.8375 9.09998 11.2375 9.09998C10.6375 9.09998 10.1313 9.30623 9.71875 9.71873C9.30625 10.1312 9.1 10.6375 9.1 11.2375C9.1 11.8375 9.30625 12.3437 9.71875 12.7562C10.1313 13.1687 10.6375 13.375 11.2375 13.375ZM1.375 12.9062H4.825V9.45623H1.375V12.9062ZM4.91875 5.01248H9.11875L7.01875 1.61873L4.91875 5.01248Z" fill="black"/>
</svg>
