<svg width="12" height="16" viewBox="0 0 12 16" fill="none" xmlns="http://www.w3.org/2000/svg">
<path d="M6 9.61251C6.4625 9.61251 6.85625 9.45314 7.18125 9.13439C7.50625 8.81564 7.66875 8.41876 7.66875 7.94376C7.66875 7.48126 7.50625 7.08751 7.18125 6.76251C6.85625 6.43751 6.4625 6.27501 6 6.27501C5.5375 6.27501 5.14375 6.43751 4.81875 6.76251C4.49375 7.08751 4.33125 7.48126 4.33125 7.94376C4.33125 8.41876 4.49375 8.81564 4.81875 9.13439C5.14375 9.45314 5.5375 9.61251 6 9.61251ZM6 14.3375C6.5875 14.1375 7.1875 13.8219 7.8 13.3906C8.4125 12.9594 8.90625 12.4688 9.28125 11.9188L7.55625 10.2688C7.31875 10.4063 7.06875 10.5188 6.80625 10.6063C6.54375 10.6938 6.275 10.7375 6 10.7375C5.225 10.7375 4.56563 10.4688 4.02188 9.93126C3.47813 9.39376 3.20625 8.73126 3.20625 7.94376C3.20625 7.16876 3.47813 6.50939 4.02188 5.96564C4.56563 5.42189 5.225 5.15001 6 5.15001C6.775 5.15001 7.43437 5.42189 7.97812 5.96564C8.52187 6.50939 8.79375 7.17501 8.79375 7.96251C8.79375 8.22501 8.75625 8.48751 8.68125 8.75001C8.60625 9.01251 8.4875 9.25001 8.325 9.46251L9.9 10.9625C10.2 10.425 10.4375 9.83439 10.6125 9.19064C10.7875 8.54689 10.875 7.88751 10.875 7.21251V3.50001L6 1.71876L1.125 3.50001V7.21251C1.125 8.85001 1.57812 10.3281 2.48438 11.6469C3.39062 12.9656 4.5625 13.8625 6 14.3375ZM6 15.4625C5.95 15.4625 5.90625 15.4594 5.86875 15.4531C5.83125 15.4469 5.79375 15.4375 5.75625 15.425C4.08125 14.925 2.70312 13.8969 1.62187 12.3406C0.540625 10.7844 0 9.07501 0 7.21251V3.53751C0 3.30001 0.0687501 3.08439 0.20625 2.89064C0.34375 2.69689 0.51875 2.55626 0.73125 2.46876L5.60625 0.650012C5.74375 0.600012 5.875 0.575012 6 0.575012C6.125 0.575012 6.25625 0.600012 6.39375 0.650012L11.2687 2.46876C11.4812 2.55626 11.6562 2.69689 11.7938 2.89064C11.9313 3.08439 12 3.30001 12 3.53751V7.21251C12 9.07501 11.4594 10.7844 10.3781 12.3406C9.29688 13.8969 7.91875 14.925 6.24375 15.425C6.20625 15.4375 6.16875 15.4469 6.13125 15.4531C6.09375 15.4594 6.05 15.4625 6 15.4625Z" fill="black"/>
</svg>
