<svg width="16" height="16" viewBox="0 0 16 16" fill="none" xmlns="http://www.w3.org/2000/svg">
<path d="M2.375 15.5C2.075 15.5 1.8125 15.3781 1.5875 15.1344C1.3625 14.8906 1.25 14.625 1.25 14.3375V5.1125C1.075 5.0875 0.90625 4.9625 0.74375 4.7375C0.58125 4.5125 0.5 4.26875 0.5 4.00625V1.625C0.5 1.3375 0.6125 1.07813 0.8375 0.846875C1.0625 0.615625 1.325 0.5 1.625 0.5H14.375C14.6625 0.5 14.9219 0.615625 15.1531 0.846875C15.3844 1.07813 15.5 1.3375 15.5 1.625V4.00625C15.5 4.26875 15.4187 4.5125 15.2562 4.7375C15.0937 4.9625 14.925 5.0875 14.75 5.1125V14.3375C14.75 14.625 14.6344 14.8906 14.4031 15.1344C14.1719 15.3781 13.9125 15.5 13.625 15.5H2.375ZM2.375 5.13125V14.375H13.625V5.13125H2.375ZM14.375 4.00625V1.625H1.625V4.00625H14.375ZM6.3125 9.06875H9.6875C9.85 9.06875 9.98438 9.01562 10.0906 8.90937C10.1969 8.80312 10.25 8.66875 10.25 8.50625C10.25 8.34375 10.1969 8.20937 10.0906 8.10312C9.98438 7.99687 9.85 7.94375 9.6875 7.94375H6.3125C6.15 7.94375 6.01562 7.99687 5.90937 8.10312C5.80312 8.20937 5.75 8.34375 5.75 8.50625C5.75 8.66875 5.80312 8.80312 5.90937 8.90937C6.01562 9.01562 6.15 9.06875 6.3125 9.06875ZM2.375 14.375V5.13125V14.375Z" fill="black"/>
</svg>
