<svg width="16" height="14" viewBox="0 0 16 14" fill="none" xmlns="http://www.w3.org/2000/svg">
<path d="M2.76876 13.75C2.14376 13.75 1.61251 13.5312 1.17501 13.0938C0.737512 12.6562 0.518762 12.125 0.518762 11.5C0.518762 10.875 0.737512 10.3438 1.17501 9.90625C1.61251 9.46875 2.14376 9.25 2.76876 9.25H13.2688C13.8938 9.25 14.425 9.46875 14.8625 9.90625C15.3 10.3438 15.5188 10.875 15.5188 11.5C15.5188 12.125 15.3 12.6562 14.8625 13.0938C14.425 13.5312 13.8938 13.75 13.2688 13.75H2.76876ZM2.76876 12.625H13.2688C13.5938 12.625 13.8625 12.5156 14.075 12.2969C14.2875 12.0781 14.3938 11.8125 14.3938 11.5C14.3938 11.175 14.2875 10.9062 14.075 10.6937C13.8625 10.4812 13.5938 10.375 13.2688 10.375H2.76876C2.45626 10.375 2.19064 10.4812 1.97189 10.6937C1.75314 10.9062 1.64376 11.175 1.64376 11.5C1.64376 11.8125 1.75314 12.0781 1.97189 12.2969C2.19064 12.5156 2.45626 12.625 2.76876 12.625ZM6.33126 7.75C6.16876 7.75 6.03439 7.69688 5.92814 7.59063C5.82189 7.48438 5.76876 7.35 5.76876 7.1875V0.8125C5.76876 0.65 5.82189 0.515625 5.92814 0.409375C6.03439 0.303125 6.16876 0.25 6.33126 0.25H12.7063C12.8688 0.25 13.0031 0.303125 13.1094 0.409375C13.2156 0.515625 13.2688 0.65 13.2688 0.8125V7.1875C13.2688 7.35 13.2156 7.48438 13.1094 7.59063C13.0031 7.69688 12.8688 7.75 12.7063 7.75H6.33126ZM6.89376 6.625H12.1438V1.375H6.89376V6.625ZM1.04376 6.0625C0.881262 6.0625 0.746887 6.00938 0.640637 5.90313C0.534387 5.79688 0.481262 5.6625 0.481262 5.5C0.481262 5.3375 0.534387 5.20312 0.640637 5.09687C0.746887 4.99062 0.881262 4.9375 1.04376 4.9375H4.06251C4.22501 4.9375 4.35939 4.99062 4.46564 5.09687C4.57189 5.20312 4.62501 5.3375 4.62501 5.5C4.62501 5.6625 4.57189 5.79688 4.46564 5.90313C4.35939 6.00938 4.22501 6.0625 4.06251 6.0625H1.04376ZM8.56251 3.8125H10.475C10.6375 3.8125 10.7719 3.75937 10.8781 3.65312C10.9844 3.54688 11.0375 3.4125 11.0375 3.25C11.0375 3.0875 10.9844 2.95312 10.8781 2.84688C10.7719 2.74063 10.6375 2.6875 10.475 2.6875H8.56251C8.40001 2.6875 8.26564 2.74063 8.15939 2.84688C8.05314 2.95312 8.00001 3.0875 8.00001 3.25C8.00001 3.4125 8.05314 3.54688 8.15939 3.65312C8.26564 3.75937 8.40001 3.8125 8.56251 3.8125ZM2.58126 3.8125C2.41876 3.8125 2.28439 3.75937 2.17814 3.65312C2.07189 3.54688 2.01876 3.4125 2.01876 3.25C2.01876 3.0875 2.07189 2.95312 2.17814 2.84688C2.28439 2.74063 2.41876 2.6875 2.58126 2.6875H4.21251C4.37501 2.6875 4.50939 2.74063 4.61564 2.84688C4.72189 2.95312 4.77501 3.0875 4.77501 3.25C4.77501 3.4125 4.72189 3.54688 4.61564 3.65312C4.50939 3.75937 4.37501 3.8125 4.21251 3.8125H2.58126ZM6.89376 6.625V1.375V6.625Z" fill="black"/>
</svg>
