<svg width="14" height="14" viewBox="0 0 14 14" fill="none" xmlns="http://www.w3.org/2000/svg">
<path d="M2.05001 13.75C1.67501 13.75 1.35626 13.6188 1.09376 13.3563C0.831262 13.0938 0.700012 12.775 0.700012 12.4V1.975C0.700012 1.6 0.831262 1.28125 1.09376 1.01875C1.35626 0.75625 1.67501 0.625 2.05001 0.625H7.09376V1.75H2.05001C2.00001 1.75 1.95001 1.775 1.90001 1.825C1.85001 1.875 1.82501 1.925 1.82501 1.975V12.4C1.82501 12.45 1.85001 12.5 1.90001 12.55C1.95001 12.6 2.00001 12.625 2.05001 12.625H7.09376V13.75H2.05001ZM10.0938 10.3937L9.32501 9.56875L11.1438 7.75H4.84376V6.625H11.1438L9.32501 4.80625L10.0938 3.98125L13.3 7.1875L10.0938 10.3937Z" fill="#222222"/>
</svg>
