<svg width="13" height="16" viewBox="0 0 13 16" fill="none" xmlns="http://www.w3.org/2000/svg">
<path d="M7.65625 15.5L7.46875 13.4375H6.71875C4.93125 13.4375 3.40625 12.8063 2.14375 11.5438C0.88125 10.2812 0.25 8.75625 0.25 6.96875C0.25 5.18125 0.884375 3.65625 2.15312 2.39375C3.42188 1.13125 4.95625 0.5 6.75625 0.5C7.64375 0.5 8.46562 0.659375 9.22187 0.978125C9.97812 1.29688 10.6375 1.74375 11.2 2.31875C11.7625 2.89375 12.2031 3.57187 12.5219 4.35312C12.8406 5.13437 13 5.9875 13 6.9125C13 8.5875 12.5281 10.2031 11.5844 11.7594C10.6406 13.3156 9.33125 14.5625 7.65625 15.5ZM6.75625 11.3187C6.95625 11.3187 7.125 11.25 7.2625 11.1125C7.4 10.975 7.46875 10.8063 7.46875 10.6063C7.46875 10.4062 7.4 10.2375 7.2625 10.1C7.125 9.9625 6.95625 9.89375 6.75625 9.89375C6.55625 9.89375 6.3875 9.9625 6.25 10.1C6.1125 10.2375 6.04375 10.4062 6.04375 10.6063C6.04375 10.8063 6.1125 10.975 6.25 11.1125C6.3875 11.25 6.55625 11.3187 6.75625 11.3187ZM6.71875 8.76875C6.84375 8.76875 6.95312 8.725 7.04688 8.6375C7.14062 8.55 7.2 8.4375 7.225 8.3C7.2625 8.125 7.34063 7.95625 7.45938 7.79375C7.57812 7.63125 7.7625 7.425 8.0125 7.175C8.35 6.8375 8.5875 6.52813 8.725 6.24688C8.8625 5.96563 8.93125 5.6625 8.93125 5.3375C8.93125 4.775 8.74063 4.3125 8.35938 3.95C7.97813 3.5875 7.46875 3.40625 6.83125 3.40625C6.39375 3.40625 5.99063 3.50312 5.62188 3.69687C5.25313 3.89062 4.95625 4.1625 4.73125 4.5125C4.65625 4.625 4.64375 4.74062 4.69375 4.85938C4.74375 4.97813 4.8375 5.06875 4.975 5.13125C5.075 5.16875 5.18125 5.16875 5.29375 5.13125C5.40625 5.09375 5.5 5.025 5.575 4.925C5.7125 4.725 5.88438 4.57812 6.09063 4.48438C6.29688 4.39062 6.525 4.34375 6.775 4.34375C7.15 4.34375 7.44375 4.43438 7.65625 4.61563C7.86875 4.79688 7.975 5.0375 7.975 5.3375C7.975 5.575 7.90625 5.81563 7.76875 6.05938C7.63125 6.30313 7.3875 6.60625 7.0375 6.96875C6.775 7.24375 6.5875 7.47188 6.475 7.65313C6.3625 7.83438 6.29375 8.05 6.26875 8.3C6.25625 8.425 6.29375 8.53437 6.38125 8.62812C6.46875 8.72187 6.58125 8.76875 6.71875 8.76875ZM8.59375 12.3125V13.475C9.61875 12.6125 10.4219 11.5969 11.0031 10.4281C11.5844 9.25938 11.875 8.0875 11.875 6.9125C11.875 5.3625 11.3906 4.09375 10.4219 3.10625C9.45312 2.11875 8.23125 1.625 6.75625 1.625C5.25625 1.625 3.98438 2.14688 2.94063 3.19063C1.89688 4.23438 1.375 5.49375 1.375 6.96875C1.375 8.44375 1.89688 9.70312 2.94063 10.7469C3.98438 11.7906 5.24375 12.3125 6.71875 12.3125H8.59375Z" fill="black"/>
</svg>
