<svg width="16" height="16" viewBox="0 0 16 16" fill="none" xmlns="http://www.w3.org/2000/svg">
<path d="M7.98125 13.3812C8.11875 13.3812 8.2375 13.3281 8.3375 13.2219C8.4375 13.1156 8.4875 12.9938 8.4875 12.8563V12.4062C9.2375 12.3188 9.82812 12.0656 10.2594 11.6469C10.6906 11.2281 10.9062 10.6938 10.9062 10.0438C10.9062 9.39375 10.7281 8.875 10.3719 8.4875C10.0156 8.1 9.4 7.7625 8.525 7.475C7.7375 7.2125 7.19688 6.95312 6.90313 6.69687C6.60938 6.44062 6.4625 6.10625 6.4625 5.69375C6.4625 5.30625 6.60312 5.00313 6.88437 4.78438C7.16562 4.56563 7.55 4.45625 8.0375 4.45625C8.3375 4.45625 8.60625 4.5125 8.84375 4.625C9.08125 4.7375 9.2875 4.90625 9.4625 5.13125C9.55 5.23125 9.65625 5.3 9.78125 5.3375C9.90625 5.375 10.025 5.3625 10.1375 5.3C10.275 5.2375 10.3656 5.1375 10.4094 5C10.4531 4.8625 10.4312 4.7375 10.3438 4.625C10.1313 4.325 9.87187 4.0875 9.56562 3.9125C9.25937 3.7375 8.9125 3.63125 8.525 3.59375V3.14375C8.525 3.00625 8.475 2.8875 8.375 2.7875C8.275 2.6875 8.15625 2.6375 8.01875 2.6375C7.88125 2.6375 7.75938 2.6875 7.65313 2.7875C7.54688 2.8875 7.49375 3.00625 7.49375 3.14375V3.59375C6.85625 3.68125 6.35313 3.9125 5.98438 4.2875C5.61562 4.6625 5.43125 5.13125 5.43125 5.69375C5.43125 6.30625 5.59062 6.79375 5.90937 7.15625C6.22812 7.51875 6.81875 7.8625 7.68125 8.1875C8.56875 8.525 9.15625 8.81875 9.44375 9.06875C9.73125 9.31875 9.875 9.64375 9.875 10.0438C9.875 10.4563 9.70625 10.8031 9.36875 11.0844C9.03125 11.3656 8.61875 11.5062 8.13125 11.5062C7.71875 11.5062 7.34063 11.4062 6.99688 11.2062C6.65313 11.0062 6.3875 10.725 6.2 10.3625C6.1375 10.2625 6.05312 10.1844 5.94687 10.1281C5.84062 10.0719 5.73125 10.0625 5.61875 10.1C5.45625 10.1625 5.34687 10.2594 5.29062 10.3906C5.23438 10.5219 5.25 10.6562 5.3375 10.7938C5.5875 11.2063 5.88437 11.5406 6.22812 11.7969C6.57188 12.0531 6.98125 12.2438 7.45625 12.3688V12.875C7.45625 13.0125 7.50938 13.1313 7.61563 13.2313C7.72188 13.3313 7.84375 13.3812 7.98125 13.3812ZM8 15.5C6.9375 15.5 5.95 15.3094 5.0375 14.9281C4.125 14.5469 3.33125 14.0188 2.65625 13.3438C1.98125 12.6687 1.45312 11.875 1.07188 10.9625C0.690625 10.05 0.5 9.0625 0.5 8C0.5 6.95 0.690625 5.96875 1.07188 5.05625C1.45312 4.14375 1.98125 3.35 2.65625 2.675C3.33125 2 4.125 1.46875 5.0375 1.08125C5.95 0.69375 6.9375 0.5 8 0.5C9.05 0.5 10.0312 0.69375 10.9438 1.08125C11.8562 1.46875 12.65 2 13.325 2.675C14 3.35 14.5312 4.14375 14.9188 5.05625C15.3063 5.96875 15.5 6.95 15.5 8C15.5 9.0625 15.3063 10.05 14.9188 10.9625C14.5312 11.875 14 12.6687 13.325 13.3438C12.65 14.0188 11.8562 14.5469 10.9438 14.9281C10.0312 15.3094 9.05 15.5 8 15.5ZM8 14.375C9.8125 14.375 11.3281 13.7656 12.5469 12.5469C13.7656 11.3281 14.375 9.8125 14.375 8C14.375 6.1875 13.7656 4.67188 12.5469 3.45312C11.3281 2.23438 9.8125 1.625 8 1.625C6.1875 1.625 4.67188 2.23438 3.45312 3.45312C2.23438 4.67188 1.625 6.1875 1.625 8C1.625 9.8125 2.23438 11.3281 3.45312 12.5469C4.67188 13.7656 6.1875 14.375 8 14.375Z" fill="black"/>
</svg>
