<svg width="15" height="14" viewBox="0 0 15 14" fill="none" xmlns="http://www.w3.org/2000/svg">
<path d="M10.225 8.2C10.5375 8.2 10.8156 8.07812 11.0594 7.83438C11.3031 7.59063 11.425 7.30625 11.425 6.98125C11.425 6.66875 11.3031 6.39375 11.0594 6.15625C10.8156 5.91875 10.5375 5.8 10.225 5.8C9.9125 5.8 9.63437 5.91875 9.39062 6.15625C9.14688 6.39375 9.025 6.66875 9.025 6.98125C9.025 7.30625 9.14688 7.59063 9.39062 7.83438C9.63437 8.07812 9.9125 8.2 10.225 8.2ZM1.375 11.6312V12.625V1.375V11.6312ZM1.375 13.75C1.0875 13.75 0.828125 13.6375 0.596875 13.4125C0.365625 13.1875 0.25 12.925 0.25 12.625V1.375C0.25 1.0875 0.365625 0.828125 0.596875 0.596875C0.828125 0.365625 1.0875 0.25 1.375 0.25H12.625C12.925 0.25 13.1875 0.365625 13.4125 0.596875C13.6375 0.828125 13.75 1.0875 13.75 1.375V3.8875H12.625V1.375H1.375V12.625H12.625V10.1312H13.75V12.625C13.75 12.925 13.6375 13.1875 13.4125 13.4125C13.1875 13.6375 12.925 13.75 12.625 13.75H1.375ZM8.0875 10.5062C7.6625 10.5062 7.325 10.3812 7.075 10.1312C6.825 9.88125 6.7 9.55 6.7 9.1375V4.88125C6.7 4.45625 6.825 4.12188 7.075 3.87813C7.325 3.63438 7.6625 3.5125 8.0875 3.5125H13.15C13.575 3.5125 13.9125 3.63438 14.1625 3.87813C14.4125 4.12188 14.5375 4.45625 14.5375 4.88125V9.1375C14.5375 9.55 14.4125 9.88125 14.1625 10.1312C13.9125 10.3812 13.575 10.5062 13.15 10.5062H8.0875Z" fill="black"/>
</svg>
