<svg width="16" height="12" viewBox="0 0 16 12" fill="none" xmlns="http://www.w3.org/2000/svg">
<path d="M1.99967 11.1667C1.67745 11.1667 1.40234 11.0529 1.17434 10.8254C0.946786 10.5974 0.833008 10.3222 0.833008 10C0.833008 9.6778 0.946786 9.40269 1.17434 9.17469C1.40234 8.94713 1.67745 8.83336 1.99967 8.83336C2.07745 8.83336 2.14679 8.83602 2.20767 8.84136C2.26901 8.84713 2.32745 8.86669 2.38301 8.90002L5.56634 5.71669C5.53301 5.66114 5.51345 5.60269 5.50767 5.54136C5.50234 5.48047 5.49967 5.41114 5.49967 5.33336C5.49967 5.01114 5.61345 4.73602 5.84101 4.50802C6.06901 4.28047 6.34412 4.16669 6.66634 4.16669C6.98856 4.16669 7.26367 4.28047 7.49167 4.50802C7.71923 4.73602 7.83301 5.01114 7.83301 5.33336C7.83301 5.3778 7.81078 5.50002 7.76634 5.70002L9.63301 7.56669C9.68856 7.53336 9.74412 7.5138 9.79967 7.50803C9.85523 7.50269 9.9219 7.50002 9.99967 7.50002C10.0775 7.50002 10.1441 7.50269 10.1997 7.50803C10.2552 7.5138 10.3108 7.53336 10.3663 7.56669L12.8997 5.03336C12.8663 4.9778 12.847 4.92225 12.8417 4.86669C12.8359 4.81114 12.833 4.74447 12.833 4.66669C12.833 4.34447 12.947 4.06936 13.175 3.84136C13.4026 3.6138 13.6775 3.50002 13.9997 3.50002C14.3219 3.50002 14.597 3.6138 14.825 3.84136C15.0526 4.06936 15.1663 4.34447 15.1663 4.66669C15.1663 4.98891 15.0526 5.26402 14.825 5.49202C14.597 5.71958 14.3219 5.83336 13.9997 5.83336C13.9219 5.83336 13.8552 5.83069 13.7997 5.82536C13.7441 5.81958 13.6886 5.80002 13.633 5.76669L11.0997 8.30002C11.133 8.35558 11.1526 8.41114 11.1583 8.46669C11.1637 8.52225 11.1663 8.58891 11.1663 8.66669C11.1663 8.98891 11.0526 9.26402 10.825 9.49203C10.597 9.71958 10.3219 9.83336 9.99967 9.83336C9.67745 9.83336 9.40234 9.71958 9.17434 9.49203C8.94678 9.26402 8.83301 8.98891 8.83301 8.66669C8.83301 8.58891 8.83567 8.51958 8.84101 8.45869C8.84679 8.39736 8.86634 8.33891 8.89967 8.28336L7.04967 6.43336C6.99412 6.46669 6.93567 6.48625 6.87434 6.49202C6.81345 6.49736 6.74412 6.50002 6.66634 6.50002C6.6219 6.50002 6.49967 6.4778 6.29967 6.43336L3.09967 9.63336C3.13301 9.68891 3.15256 9.74447 3.15834 9.80002C3.16367 9.85558 3.16634 9.92225 3.16634 10C3.16634 10.3222 3.05234 10.5974 2.82434 10.8254C2.59679 11.0529 2.3219 11.1667 1.99967 11.1667ZM2.66634 4.38336L2.33301 3.66669L1.61634 3.33336L2.33301 3.00002L2.66634 2.28336L2.99967 3.00002L3.71634 3.33336L2.99967 3.66669L2.66634 4.38336ZM9.99967 3.60002L9.49967 2.50002L8.39967 2.00002L9.49967 1.50002L9.99967 0.400024L10.4997 1.50002L11.5997 2.00002L10.4997 2.50002L9.99967 3.60002Z" fill="#222222"/>
</svg>
