<svg width="12" height="14" viewBox="0 0 12 14" fill="none" xmlns="http://www.w3.org/2000/svg">
<path d="M1.125 12.625H3.9375V7.9375H8.0625V12.625H10.875V5.3125L6 1.65625L1.125 5.3125V12.625ZM1.125 13.75C0.8125 13.75 0.546875 13.6406 0.328125 13.4219C0.109375 13.2031 0 12.9375 0 12.625V5.3125C0 5.1375 0.0406249 4.96875 0.121875 4.80625C0.203125 4.64375 0.3125 4.5125 0.45 4.4125L5.325 0.75625C5.425 0.68125 5.53125 0.625 5.64375 0.5875C5.75625 0.55 5.875 0.53125 6 0.53125C6.125 0.53125 6.24375 0.55 6.35625 0.5875C6.46875 0.625 6.575 0.68125 6.675 0.75625L11.55 4.4125C11.6875 4.5125 11.7969 4.64375 11.8781 4.80625C11.9594 4.96875 12 5.1375 12 5.3125V12.625C12 12.9375 11.8906 13.2031 11.6719 13.4219C11.4531 13.6406 11.1875 13.75 10.875 13.75H6.9375V9.0625H5.0625V13.75H1.125Z" fill="black"/>
</svg>
