<svg width="16" height="12" viewBox="0 0 16 12" fill="none" xmlns="http://www.w3.org/2000/svg">
<path d="M0.350098 11.475V9.80628C0.350098 9.41878 0.450098 9.07502 0.650098 8.77502C0.850098 8.47502 1.11885 8.23752 1.45635 8.06252C2.16885 7.72502 2.8846 7.45952 3.6036 7.26602C4.3221 7.07202 5.1126 6.97502 5.9751 6.97502C6.8376 6.97502 7.62835 7.07202 8.34735 7.26602C9.06585 7.45952 9.78135 7.72502 10.4938 8.06252C10.8313 8.23752 11.1001 8.47502 11.3001 8.77502C11.5001 9.07502 11.6001 9.41878 11.6001 9.80628V11.475H0.350098ZM13.1001 11.475V9.71253C13.1001 9.22503 12.9781 8.75927 12.7341 8.31527C12.4906 7.87177 12.1501 7.48752 11.7126 7.16252C12.2126 7.23752 12.6876 7.35302 13.1376 7.50902C13.5876 7.66552 14.0188 7.85002 14.4313 8.06252C14.8188 8.27502 15.1188 8.52202 15.3313 8.80352C15.5438 9.08452 15.6501 9.38753 15.6501 9.71253V11.475H13.1001ZM5.9751 5.77502C5.2501 5.77502 4.63135 5.51552 4.11885 4.99652C3.60635 4.47802 3.3501 3.86252 3.3501 3.15002C3.3501 2.42502 3.60635 1.80627 4.11885 1.29377C4.63135 0.781274 5.2501 0.525024 5.9751 0.525024C6.7001 0.525024 7.31885 0.781274 7.83135 1.29377C8.34385 1.80627 8.6001 2.42502 8.6001 3.15002C8.6001 3.86252 8.34385 4.47802 7.83135 4.99652C7.31885 5.51552 6.7001 5.77502 5.9751 5.77502ZM12.4438 3.15002C12.4438 3.86252 12.1876 4.47802 11.6751 4.99652C11.1626 5.51552 10.5438 5.77502 9.81885 5.77502C9.74385 5.77502 9.6406 5.76552 9.5091 5.74652C9.3781 5.72802 9.26885 5.70627 9.18135 5.68127C9.48135 5.31877 9.7096 4.92202 9.8661 4.49102C10.0221 4.05952 10.1001 3.61252 10.1001 3.15002C10.1001 2.67502 10.0188 2.22502 9.85635 1.80002C9.69385 1.37502 9.46885 0.981274 9.18135 0.618774C9.28135 0.581274 9.3876 0.556274 9.5001 0.543774C9.6126 0.531274 9.71885 0.525024 9.81885 0.525024C10.5438 0.525024 11.1626 0.781274 11.6751 1.29377C12.1876 1.80627 12.4438 2.42502 12.4438 3.15002ZM1.4751 10.35H10.4751V9.80628C10.4751 9.65627 10.4346 9.51877 10.3536 9.39377C10.2721 9.26877 10.1501 9.16253 9.9876 9.07502C9.3626 8.76252 8.7251 8.52177 8.0751 8.35277C7.4251 8.18427 6.7251 8.10002 5.9751 8.10002C5.2251 8.10002 4.5221 8.18427 3.8661 8.35277C3.2096 8.52177 2.5751 8.76252 1.9626 9.07502C1.7876 9.16253 1.6626 9.26877 1.5876 9.39377C1.5126 9.51877 1.4751 9.65627 1.4751 9.80628V10.35ZM5.9751 4.65002C6.3876 4.65002 6.74085 4.50302 7.03485 4.20902C7.32835 3.91552 7.4751 3.56252 7.4751 3.15002C7.4751 2.73752 7.32835 2.38427 7.03485 2.09027C6.74085 1.79677 6.3876 1.65002 5.9751 1.65002C5.5626 1.65002 5.2096 1.79677 4.9161 2.09027C4.6221 2.38427 4.4751 2.73752 4.4751 3.15002C4.4751 3.56252 4.6221 3.91552 4.9161 4.20902C5.2096 4.50302 5.5626 4.65002 5.9751 4.65002Z" fill="#222222"/>
</svg>
