<svg width="16" height="16" viewBox="0 0 16 16" fill="none" xmlns="http://www.w3.org/2000/svg">
<path d="M9.23769 15.5H6.7627C6.6252 15.5 6.50332 15.4563 6.39707 15.3688C6.29082 15.2813 6.2252 15.1687 6.2002 15.0312L5.9002 13.1375C5.6627 13.05 5.4127 12.9312 5.1502 12.7812C4.8877 12.6313 4.65645 12.475 4.45645 12.3125L2.7127 13.1188C2.5752 13.1813 2.4377 13.1906 2.3002 13.1469C2.1627 13.1031 2.05645 13.0125 1.98145 12.875L0.743945 10.6812C0.668945 10.5562 0.650195 10.425 0.687695 10.2875C0.725195 10.15 0.800195 10.0375 0.912695 9.95L2.5252 8.76875C2.5002 8.65625 2.48457 8.52812 2.47832 8.38437C2.47207 8.24062 2.46895 8.1125 2.46895 8C2.46895 7.8875 2.47207 7.75938 2.47832 7.61563C2.48457 7.47188 2.5002 7.34375 2.5252 7.23125L0.912695 6.05C0.800195 5.9625 0.725195 5.85 0.687695 5.7125C0.650195 5.575 0.668945 5.44375 0.743945 5.31875L1.98145 3.125C2.05645 2.9875 2.1627 2.89687 2.3002 2.85312C2.4377 2.80937 2.5752 2.81875 2.7127 2.88125L4.45645 3.6875C4.65645 3.525 4.8877 3.36875 5.1502 3.21875C5.4127 3.06875 5.6627 2.95625 5.9002 2.88125L6.2002 0.96875C6.2252 0.83125 6.29082 0.71875 6.39707 0.63125C6.50332 0.54375 6.6252 0.5 6.7627 0.5H9.23769C9.37519 0.5 9.49707 0.54375 9.60332 0.63125C9.70957 0.71875 9.7752 0.83125 9.80019 0.96875L10.1002 2.8625C10.3377 2.95 10.5908 3.06563 10.8596 3.20938C11.1283 3.35313 11.3564 3.5125 11.5439 3.6875L13.2877 2.88125C13.4252 2.81875 13.5627 2.80937 13.7002 2.85312C13.8377 2.89687 13.9439 2.9875 14.0189 3.125L15.2564 5.3C15.3314 5.425 15.3533 5.55937 15.3221 5.70312C15.2908 5.84688 15.2127 5.9625 15.0877 6.05L13.4752 7.19375C13.5002 7.31875 13.5158 7.45312 13.5221 7.59687C13.5283 7.74062 13.5314 7.875 13.5314 8C13.5314 8.125 13.5283 8.25625 13.5221 8.39375C13.5158 8.53125 13.5002 8.6625 13.4752 8.7875L15.0877 9.95C15.2002 10.0375 15.2752 10.15 15.3127 10.2875C15.3502 10.425 15.3314 10.5562 15.2564 10.6812L14.0189 12.875C13.9439 13.0125 13.8377 13.1031 13.7002 13.1469C13.5627 13.1906 13.4252 13.1813 13.2877 13.1188L11.5439 12.3125C11.3439 12.475 11.1158 12.6344 10.8596 12.7906C10.6033 12.9469 10.3502 13.0625 10.1002 13.1375L9.80019 15.0312C9.7752 15.1687 9.70957 15.2813 9.60332 15.3688C9.49707 15.4563 9.37519 15.5 9.23769 15.5ZM8.0002 10.4375C8.67519 10.4375 9.2502 10.2 9.72519 9.725C10.2002 9.25 10.4377 8.675 10.4377 8C10.4377 7.325 10.2002 6.75 9.72519 6.275C9.2502 5.8 8.67519 5.5625 8.0002 5.5625C7.32519 5.5625 6.7502 5.8 6.2752 6.275C5.8002 6.75 5.5627 7.325 5.5627 8C5.5627 8.675 5.8002 9.25 6.2752 9.725C6.7502 10.2 7.32519 10.4375 8.0002 10.4375ZM8.0002 9.3125C7.63769 9.3125 7.32832 9.18437 7.07207 8.92813C6.81582 8.67188 6.6877 8.3625 6.6877 8C6.6877 7.6375 6.81582 7.32812 7.07207 7.07187C7.32832 6.81562 7.63769 6.6875 8.0002 6.6875C8.3627 6.6875 8.67207 6.81562 8.92832 7.07187C9.18457 7.32812 9.31269 7.6375 9.31269 8C9.31269 8.3625 9.18457 8.67188 8.92832 8.92813C8.67207 9.18437 8.3627 9.3125 8.0002 9.3125ZM7.17519 14.375H8.8252L9.0877 12.275C9.50019 12.175 9.89082 12.0188 10.2596 11.8063C10.6283 11.5938 10.9627 11.3375 11.2627 11.0375L13.2502 11.9L14.0002 10.55L12.2377 9.25625C12.2877 9.04375 12.3283 8.83437 12.3596 8.62812C12.3908 8.42187 12.4064 8.2125 12.4064 8C12.4064 7.7875 12.3939 7.57813 12.3689 7.37188C12.3439 7.16563 12.3002 6.95625 12.2377 6.74375L14.0002 5.45L13.2502 4.1L11.2627 4.9625C10.9752 4.6375 10.6502 4.36563 10.2877 4.14688C9.92519 3.92813 9.5252 3.7875 9.0877 3.725L8.8252 1.625H7.17519L6.91269 3.725C6.4877 3.8125 6.09082 3.9625 5.72207 4.175C5.35332 4.3875 5.0252 4.65 4.7377 4.9625L2.7502 4.1L2.0002 5.45L3.7627 6.74375C3.7127 6.95625 3.67207 7.16563 3.64082 7.37188C3.60957 7.57813 3.59395 7.7875 3.59395 8C3.59395 8.2125 3.60957 8.42187 3.64082 8.62812C3.67207 8.83437 3.7127 9.04375 3.7627 9.25625L2.0002 10.55L2.7502 11.9L4.7377 11.0375C5.0377 11.3375 5.37207 11.5938 5.74082 11.8063C6.10957 12.0188 6.5002 12.175 6.91269 12.275L7.17519 14.375Z" fill="white"/>
</svg>
