<svg width="16" height="20" viewBox="0 0 16 20" fill="none" xmlns="http://www.w3.org/2000/svg">
<path d="M0.75 17C0.533333 17 0.354167 16.9292 0.2125 16.7875C0.0708334 16.6458 0 16.4667 0 16.25C0 16.0333 0.0708334 15.8542 0.2125 15.7125C0.354167 15.5708 0.533333 15.5 0.75 15.5H2.1V7.85C2.1 6.48333 2.5125 5.24583 3.3375 4.1375C4.1625 3.02917 5.25 2.33333 6.6 2.05V1.325C6.6 0.941667 6.7375 0.625 7.0125 0.375C7.2875 0.125 7.61667 0 8 0C8.38333 0 8.7125 0.125 8.9875 0.375C9.2625 0.625 9.4 0.941667 9.4 1.325V2.05C10.75 2.33333 11.8417 3.02917 12.675 4.1375C13.5083 5.24583 13.925 6.48333 13.925 7.85V15.5H15.25C15.4667 15.5 15.6458 15.5708 15.7875 15.7125C15.9292 15.8542 16 16.0333 16 16.25C16 16.4667 15.9292 16.6458 15.7875 16.7875C15.6458 16.9292 15.4667 17 15.25 17H0.75ZM8 20C7.46667 20 7 19.8042 6.6 19.4125C6.2 19.0208 6 18.55 6 18H10C10 18.55 9.80417 19.0208 9.4125 19.4125C9.02083 19.8042 8.55 20 8 20ZM3.6 15.5H12.425V7.85C12.425 6.6 12.0042 5.54583 11.1625 4.6875C10.3208 3.82917 9.28333 3.4 8.05 3.4C6.8 3.4 5.74583 3.82917 4.8875 4.6875C4.02917 5.54583 3.6 6.6 3.6 7.85V15.5Z" fill="#222222"/>
</svg>
