<svg width="20" height="20" viewBox="0 0 20 20" fill="none" xmlns="http://www.w3.org/2000/svg">
<path d="M10 15.625C10.2833 15.625 10.521 15.525 10.713 15.325C10.9043 15.125 11 14.8833 11 14.6C11 14.3167 10.9043 14.075 10.713 13.875C10.521 13.675 10.2833 13.575 10 13.575C9.7 13.575 9.45433 13.675 9.263 13.875C9.071 14.075 8.975 14.3167 8.975 14.6C8.975 14.8833 9.071 15.125 9.263 15.325C9.45433 15.525 9.7 15.625 10 15.625ZM9.275 12.025H10.7C10.7 11.5417 10.7667 11.154 10.9 10.862C11.0333 10.5707 11.35 10.175 11.85 9.675C12.3 9.24167 12.6417 8.83733 12.875 8.462C13.1083 8.08733 13.225 7.65 13.225 7.15C13.225 6.28333 12.9167 5.60833 12.3 5.125C11.6833 4.64167 10.95 4.4 10.1 4.4C9.26667 4.4 8.575 4.625 8.025 5.075C7.475 5.525 7.08333 6.05 6.85 6.65L8.15 7.15C8.26667 6.83333 8.471 6.51667 8.763 6.2C9.05433 5.88333 9.49167 5.725 10.075 5.725C10.675 5.725 11.1167 5.88733 11.4 6.212C11.6833 6.53733 11.825 6.89167 11.825 7.275C11.825 7.60833 11.725 7.91667 11.525 8.2C11.325 8.48333 11.075 8.75833 10.775 9.025C10.125 9.60833 9.71267 10.0793 9.538 10.438C9.36267 10.796 9.275 11.325 9.275 12.025ZM10 19.5C8.68333 19.5 7.446 19.25 6.288 18.75C5.12933 18.25 4.125 17.575 3.275 16.725C2.425 15.875 1.75 14.8707 1.25 13.712C0.75 12.554 0.5 11.3167 0.5 10C0.5 8.68333 0.75 7.44567 1.25 6.287C1.75 5.129 2.425 4.125 3.275 3.275C4.125 2.425 5.12933 1.75 6.288 1.25C7.446 0.75 8.68333 0.5 10 0.5C11.3167 0.5 12.5543 0.75 13.713 1.25C14.871 1.75 15.875 2.425 16.725 3.275C17.575 4.125 18.25 5.129 18.75 6.287C19.25 7.44567 19.5 8.68333 19.5 10C19.5 11.3167 19.25 12.554 18.75 13.712C18.25 14.8707 17.575 15.875 16.725 16.725C15.875 17.575 14.871 18.25 13.713 18.75C12.5543 19.25 11.3167 19.5 10 19.5ZM10 18C12.2333 18 14.125 17.225 15.675 15.675C17.225 14.125 18 12.2333 18 10C18 7.76667 17.225 5.875 15.675 4.325C14.125 2.775 12.2333 2 10 2C7.76667 2 5.875 2.775 4.325 4.325C2.775 5.875 2 7.76667 2 10C2 12.2333 2.775 14.125 4.325 15.675C5.875 17.225 7.76667 18 10 18Z" fill="black"/>
</svg>
