<svg width="16" height="12" viewBox="0 0 16 12" fill="none" xmlns="http://www.w3.org/2000/svg">
<path d="M3.73366 11.3167C3.18921 11.3167 2.72533 11.1278 2.34199 10.75C1.95866 10.3722 1.76699 9.90558 1.76699 9.35002H1.66699C1.38921 9.35002 1.1531 9.2528 0.958659 9.05835C0.764214 8.86391 0.666992 8.6278 0.666992 8.35002V1.66669C0.666992 1.40002 0.766992 1.16669 0.966992 0.966687C1.16699 0.766687 1.40033 0.666687 1.66699 0.666687H10.317C10.5948 0.666687 10.8309 0.763909 11.0253 0.958354C11.2198 1.1528 11.317 1.38891 11.317 1.66669V3.45002H12.817C12.9059 3.45002 12.9837 3.46669 13.0503 3.50002C13.117 3.53335 13.1725 3.58335 13.217 3.65002L15.2337 6.33335C15.267 6.3778 15.292 6.42502 15.3087 6.47502C15.3253 6.52502 15.3337 6.5778 15.3337 6.63335V8.85002C15.3337 8.99446 15.2864 9.11391 15.192 9.20835C15.0975 9.3028 14.9781 9.35002 14.8337 9.35002H14.1503C14.1503 9.90558 13.9587 10.3722 13.5753 10.75C13.192 11.1278 12.7281 11.3167 12.1837 11.3167C11.6392 11.3167 11.1753 11.1278 10.792 10.75C10.4087 10.3722 10.217 9.90558 10.217 9.35002H5.70033C5.70033 9.90558 5.50866 10.3722 5.12533 10.75C4.74199 11.1278 4.2781 11.3167 3.73366 11.3167ZM3.73366 10.3167C4.00033 10.3167 4.2281 10.2222 4.41699 10.0334C4.60588 9.84446 4.70033 9.61669 4.70033 9.35002C4.70033 9.08335 4.60588 8.85558 4.41699 8.66669C4.2281 8.4778 4.00033 8.38335 3.73366 8.38335C3.46699 8.38335 3.23921 8.4778 3.05033 8.66669C2.86144 8.85558 2.76699 9.08335 2.76699 9.35002C2.76699 9.61669 2.86144 9.84446 3.05033 10.0334C3.23921 10.2222 3.46699 10.3167 3.73366 10.3167ZM1.66699 1.66669V8.35002H2.03366C2.22255 8.05002 2.46144 7.81113 2.75033 7.63335C3.03921 7.45558 3.36144 7.36669 3.71699 7.36669C4.07255 7.36669 4.39755 7.45835 4.69199 7.64169C4.98644 7.82502 5.2281 8.06113 5.41699 8.35002H10.317V1.66669H1.66699ZM12.1837 10.3167C12.4503 10.3167 12.6781 10.2222 12.867 10.0334C13.0559 9.84446 13.1503 9.61669 13.1503 9.35002C13.1503 9.08335 13.0559 8.85558 12.867 8.66669C12.6781 8.4778 12.4503 8.38335 12.1837 8.38335C11.917 8.38335 11.6892 8.4778 11.5003 8.66669C11.3114 8.85558 11.217 9.08335 11.217 9.35002C11.217 9.61669 11.3114 9.84446 11.5003 10.0334C11.6892 10.2222 11.917 10.3167 12.1837 10.3167ZM11.317 6.91669H14.417L12.567 4.45002H11.317V6.91669Z" fill="black"/>
</svg>
